<svg width="450.425px" height="164.96000366210936px" xmlns="http://www.w3.org/2000/svg" viewBox="24.787499999999994 -7.480001831054679 450.425 164.96000366210936" style="background: rgb(3, 3, 3);" preserveAspectRatio="xMidYMid"><defs><linearGradient id="editing-outline-gradient" x1="0.7079116908177592" x2="0.2920883091822409" y1="-0.4781476007338057" y2="1.4781476007338057"><stop offset="0" stop-color="#901b00"></stop><stop offset="1" stop-color="#ffffff"></stop></linearGradient><filter id="editing-outline" x="-100%" y="-100%" width="300%" height="300%"><feMorphology in="SourceGraphic" operator="dilate" radius="1" result="outline"></feMorphology><feComposite operator="out" in="outline" in2="SourceAlpha"></feComposite></filter></defs><g filter="url(#editing-outline)"><g transform="translate(94.36502408981323, 119.03500747680664)"><path d="M5.39 0.28L5.39 0.28Q4.65 0.28 4.28-0.28L4.28-0.28L4.28-0.28Q3.91-0.84 3.91-1.58L3.91-1.58L3.91-1.58Q4.00-2.79 4.42-3.02L4.42-3.02L4.42-3.02Q4.84-3.25 6.04-3.25L6.04-3.25L6.04-3.25Q8.46-3.25 9.49-4.09L9.49-4.09L9.49-4.09Q10.51-4.93 10.65-6.00L10.65-6.00L10.65-6.00Q10.79-7.07 10.79-9.58L10.79-9.58L10.79-38.50L4.56-38.50L4.56-38.50Q3.81-38.50 3.39-39.06L3.39-39.06L3.39-39.06Q2.98-39.62 2.98-40.36L2.98-40.36L2.98-40.36Q3.07-41.66 3.53-41.90L3.53-41.90L3.53-41.90Q4.00-42.13 5.21-42.13L5.21-42.13L10.79-42.13L10.79-46.03L10.79-46.03Q10.79-55.61 15.30-61.61L15.30-61.61L15.30-61.61Q19.81-67.61 27.99-67.80L27.99-67.80L27.99-67.80Q32.55-67.80 36.18-65.24L36.18-65.24L36.18-65.24Q39.80-62.68 39.80-58.68L39.80-58.68L39.80-58.68Q39.80-55.89 38.18-53.80L38.18-53.80L38.18-53.80Q36.55-51.71 33.67-51.71L33.67-51.71L33.67-51.71Q31.99-51.71 30.78-52.64L30.78-52.64L30.78-52.64Q29.57-53.57 29.57-54.13L29.57-54.13L29.57-54.13Q29.57-54.22 30.46-55.06L30.46-55.06L30.46-55.06Q31.34-55.89 32.04-57.06L32.04-57.06L32.04-57.06Q32.74-58.22 32.74-59.80L32.74-59.80L32.74-59.80Q32.74-61.84 31.20-63.29L31.20-63.29L31.20-63.29Q29.67-64.73 27.34-64.73L27.34-64.73L27.34-64.73Q23.62-64.73 21.86-61.84L21.86-61.84L21.86-61.84Q20.09-58.96 19.72-55.57L19.72-55.57L19.72-55.57Q19.34-52.17 19.34-47.71L19.34-47.71L19.34-42.13L28.46-42.13L29.02-42.13L29.02-42.13Q29.85-42.13 30.27-41.80L30.27-41.80L30.27-41.80Q30.69-41.48 30.78-40.36L30.78-40.36L30.78-40.36Q30.78-39.62 30.32-39.06L30.32-39.06L30.32-39.06Q29.85-38.50 29.20-38.50L29.20-38.50L19.34-38.50L19.34-9.58L19.34-9.58Q19.34-6.70 19.81-5.44L19.81-5.44L19.81-5.44Q20.27-4.18 21.58-3.72L21.58-3.72L21.58-3.72Q22.88-3.25 25.95-3.25L25.95-3.25L26.50-3.25L26.50-3.25Q27.34-3.25 27.67-2.98L27.67-2.98L27.67-2.98Q27.99-2.70 28.09-1.58L28.09-1.58L28.09-1.58Q28.09-0.84 27.71-0.28L27.71-0.28L27.71-0.28Q27.34 0.28 26.69 0.28L26.69 0.28L26.69 0.28Q21.30 0 15.07 0L15.07 0L15.07 0Q10.70 0 5.39 0.28L5.39 0.28ZM35.53 0.28L35.53 0.28Q34.88 0.28 34.46-0.28L34.46-0.28L34.46-0.28Q34.04-0.84 34.04-1.58L34.04-1.58L34.04-1.58Q34.13-2.79 34.55-3.02L34.55-3.02L34.55-3.02Q34.97-3.25 36.18-3.25L36.18-3.25L36.18-3.25Q38.59-3.25 39.62-4.09L39.62-4.09L39.62-4.09Q40.64-4.93 40.83-6.04L40.83-6.04L40.83-6.04Q41.01-7.16 41.01-9.58L41.01-9.58L41.01-54.96L41.01-54.96Q41.01-57.38 40.87-58.50L40.87-58.50L40.87-58.50Q40.73-59.61 39.71-60.45L39.71-60.45L39.71-60.45Q38.69-61.29 36.27-61.29L36.27-61.29L36.27-61.29Q35.15-61.29 34.60-61.61L34.60-61.61L34.60-61.61Q34.04-61.94 34.04-63.15L34.04-63.15L34.04-63.15Q34.04-63.70 34.41-64.22L34.41-64.22L34.41-64.22Q34.78-64.73 35.53-64.82L35.53-64.82L35.53-64.82Q41.39-65.66 45.57-67.24L45.57-67.24L45.57-67.24Q46.87-67.70 47.71-67.80L47.71-67.80L47.99-67.80L47.99-67.80Q49.48-67.80 49.48-66.03L49.48-66.03L49.48-9.58L49.48-9.58Q49.48-7.16 49.66-6.04L49.66-6.04L49.66-6.04Q49.85-4.93 50.87-4.09L50.87-4.09L50.87-4.09Q51.89-3.25 54.31-3.25L54.31-3.25L54.87-3.25L54.87-3.25Q55.61-3.25 55.99-2.98L55.99-2.98L55.99-2.98Q56.36-2.70 56.45-1.58L56.45-1.58L56.45-1.58Q56.45-0.84 56.08-0.28L56.08-0.28L56.08-0.28Q55.71 0.28 54.96 0.28L54.96 0.28L54.96 0.28Q49.57 0 45.20 0L45.20 0L45.20 0Q41.01 0 35.53 0.28L35.53 0.28ZM67.42 20.27L67.42 20.27Q63.43 20.27 60.31 17.72L60.31 17.72L60.31 17.72Q57.20 15.16 57.20 11.63L57.20 11.63L57.20 11.63Q57.20 7.44 59.52 6.28L59.52 6.28L59.52 6.28Q61.84 5.12 63.15 5.12L63.15 5.12L63.15 5.12Q64.73 5.12 65.75 5.77L65.75 5.77L65.75 5.77Q66.77 6.42 66.77 6.97L66.77 6.97L66.77 6.97Q66.77 7.16 66.03 7.91L66.03 7.91L66.03 7.91Q65.29 8.65 65.29 10.51L65.29 10.51L65.29 10.51Q65.29 12.37 66.45 13.76L66.45 13.76L66.45 13.76Q67.61 15.16 69.75 15.16L69.75 15.16L69.75 15.16Q75.61 15.16 81.19 3.16L81.19 3.16L81.19 3.16Q81.56 1.86 81.56 1.21L81.56 1.21L81.56 1.21Q81.56 0.28 81.10-1.12L81.10-1.12L81.10-1.12Q79.24-5.30 74.86-16.65L74.86-16.65L74.86-16.65Q71.05-26.78 68.63-32.09L68.63-32.09L68.63-32.09Q67.05-35.71 65.66-37.06L65.66-37.06L65.66-37.06Q64.26-38.41 61.57-38.78L61.57-38.78L61.57-38.78Q61.29-38.87 60.54-38.97L60.54-38.97L60.54-38.97Q59.80-39.06 59.61-39.43L59.61-39.43L59.61-39.43Q59.43-39.80 59.43-40.73L59.43-40.73L59.43-40.73Q59.43-41.85 60.03-42.13L60.03-42.13L60.03-42.13Q60.64-42.41 61.52-42.45L61.52-42.45L61.52-42.45Q62.40-42.50 62.68-42.50L62.68-42.50L62.68-42.50Q68.36-42.78 71.61-40.87L71.61-40.87L71.61-40.87Q74.86-38.97 77.00-34.22L77.00-34.22L77.00-34.22Q79.05-29.48 80.63-25.20L80.63-25.20L80.63-25.20Q84.35-15.16 86.68-10.51L86.68-10.51L86.95-10.51L96.07-34.88L96.07-34.88Q96.53-36.46 96.53-37.11L96.53-37.11L96.53-37.11Q96.53-38.13 95.60-38.50L95.60-38.50L95.60-38.50Q94.67-38.87 92.53-38.87L92.53-38.87L91.98-38.87L91.98-38.87Q91.23-38.87 90.91-39.15L90.91-39.15L90.91-39.15Q90.58-39.43 90.49-40.55L90.49-40.55L90.49-40.55Q90.49-41.20 90.81-41.80L90.81-41.80L90.81-41.80Q91.14-42.41 91.79-42.41L91.79-42.41L91.79-42.41Q97.09-42.13 100.81-42.13L100.81-42.13L100.81-42.13Q102.30-42.13 106.58-42.31L106.58-42.31L108.53-42.41L108.53-42.41Q109.18-42.41 109.55-41.80L109.55-41.80L109.55-41.80Q109.93-41.20 109.93-40.55L109.93-40.55L109.93-40.55Q109.83-39.43 109.46-39.15L109.46-39.15L109.46-39.15Q109.09-38.87 108.34-38.87L108.34-38.87L108.34-38.87Q104.90-38.87 103.04-37.76L103.04-37.76L103.04-37.76Q101.18-36.64 99.88-33.39L99.88-33.39L99.88-33.39Q97.74-28.09 93-16.37L93-16.37L93-16.37Q88.26-4.65 85.93 0.93L85.93 0.93L85.93 0.93Q82.58 8.93 78.12 14.60L78.12 14.60L78.12 14.60Q73.66 20.27 67.42 20.27L67.42 20.27ZM130.11 1.12L130.11 1.12Q122.67 1.12 118.02-1.49L118.02-1.49L118.02-1.49Q113.37-4.09 113.37-8.83L113.37-8.83L113.37-8.83Q113.37-11.53 114.99-13.21L114.99-13.21L114.99-13.21Q116.62-14.88 119.23-14.88L119.23-14.88L119.23-14.88Q120.71-14.88 121.88-14.04L121.88-14.04L121.88-14.04Q123.04-13.21 123.04-12.74L123.04-12.74L123.04-12.74Q123.04-12.65 121.97-11.53L121.97-11.53L121.97-11.53Q120.90-10.42 120.90-8.37L120.90-8.37L120.90-8.37Q120.90-5.58 123.46-3.95L123.46-3.95L123.46-3.95Q126.02-2.33 130.85-2.33L130.85-2.33L130.85-2.33Q135.22-2.33 137.69-4.23L137.69-4.23L137.69-4.23Q140.15-6.14 140.15-9.58L140.15-9.58L140.15-9.58Q140.15-11.90 138.76-13.39L138.76-13.39L138.76-13.39Q137.36-14.88 135.27-15.72L135.27-15.72L135.27-15.72Q133.18-16.55 129.46-17.67L129.46-17.67L129.46-17.67Q124.90-18.97 122.02-20.27L122.02-20.27L122.02-20.27Q119.13-21.58 117.09-24.18L117.09-24.18L117.09-24.18Q115.04-26.78 115.04-30.97L115.04-30.97L115.04-30.97Q115.04-34.88 117.46-37.66L117.46-37.66L117.46-37.66Q119.88-40.45 123.74-41.85L123.74-41.85L123.74-41.85Q127.60-43.24 131.87-43.24L131.87-43.24L131.87-43.24Q137.36-43.24 141.41-40.92L141.41-40.92L141.41-40.92Q145.45-38.59 145.45-34.41L145.45-34.41L145.45-34.41Q145.45-31.90 143.92-30.13L143.92-30.13L143.92-30.13Q142.38-28.36 139.87-28.36L139.87-28.36L139.87-28.36Q138.38-28.36 137.22-29.20L137.22-29.20L137.22-29.20Q136.06-30.04 136.06-30.50L136.06-30.50L136.06-30.50Q136.06-30.60 136.80-31.25L136.80-31.25L136.80-31.25Q137.55-31.90 138.15-32.78L138.15-32.78L138.15-32.78Q138.76-33.67 138.76-34.88L138.76-34.88L138.76-34.88Q138.57-37.39 136.25-38.78L136.25-38.78L136.25-38.78Q133.92-40.18 130.76-40.18L130.76-40.18L130.76-40.18Q127.22-40.18 124.57-38.55L124.57-38.55L124.57-38.55Q121.92-36.92 121.92-34.04L121.92-34.04L121.92-34.04Q121.92-31.43 123.04-29.90L123.04-29.90L123.04-29.90Q124.16-28.36 126.39-27.43L126.39-27.43L126.39-27.43Q128.62-26.50 133.45-24.92L133.45-24.92L133.45-24.92Q138.38-23.34 141.17-21.99L141.17-21.99L141.17-21.99Q143.96-20.65 145.59-18.37L145.59-18.37L145.59-18.37Q147.22-16.09 147.22-12.37L147.22-12.37L147.22-12.37Q147.22-8.56 144.99-5.44L144.99-5.44L144.99-5.44Q142.75-2.33 138.85-0.60L138.85-0.60L138.85-0.60Q134.94 1.12 130.11 1.12L130.11 1.12ZM166.66 1.12L166.66 1.12Q161.08 1.12 157.63-2.05L157.63-2.05L157.63-2.05Q154.19-5.21 154.19-9.95L154.19-9.95L154.19-9.95Q154.19-15.81 158.10-18.74L158.10-18.74L158.10-18.74Q162.01-21.67 167.40-22.55L167.40-22.55L167.40-22.55Q172.79-23.44 181.35-23.90L181.35-23.90L181.35-31.25L181.35-31.25Q181.35-35.80 179.07-38.18L179.07-38.18L179.07-38.18Q176.79-40.55 171.77-40.55L171.77-40.55L171.77-40.55Q168.89-40.55 166.75-38.78L166.75-38.78L166.75-38.78Q164.61-37.01 164.61-34.04L164.61-34.04L164.61-34.04Q164.61-32.55 165.31-31.57L165.31-31.57L165.31-31.57Q166.00-30.60 166.80-29.95L166.80-29.95L166.80-29.95Q167.59-29.29 167.59-29.20L167.59-29.20L167.59-29.20Q167.59-28.64 166.42-27.76L166.42-27.76L166.42-27.76Q165.26-26.88 163.59-26.88L163.59-26.88L163.59-26.88Q160.80-26.88 159.17-28.92L159.17-28.92L159.17-28.92Q157.54-30.97 157.54-33.76L157.54-33.76L157.54-33.76Q157.54-38.59 161.87-40.92L161.87-40.92L161.87-40.92Q166.19-43.24 172.33-43.24L172.33-43.24L172.33-43.24Q179.95-43.24 184.74-40.36L184.74-40.36L184.74-40.36Q189.53-37.48 189.53-29.67L189.53-29.67L189.53-8.00L189.53-8.00Q189.63-6.04 190.74-4.28L190.74-4.28L190.74-4.28Q191.86-2.51 194.37-2.51L194.37-2.51L194.37-2.51Q195.11-2.51 195.44-2.23L195.44-2.23L195.44-2.23Q195.76-1.95 195.76-1.02L195.76-1.02L195.76-1.02Q195.76 0.09 194.04 0.60L194.04 0.60L194.04 0.60Q192.32 1.12 190.65 1.12L190.65 1.12L190.65 1.12Q187.12 1.12 184.42-0.93L184.42-0.93L184.42-0.93Q181.72-2.98 181.35-6.42L181.35-6.42L181.35-6.42Q179.40-2.79 175.35-0.84L175.35-0.84L175.35-0.84Q171.31 1.12 166.66 1.12L166.66 1.12ZM169.63-3.91L169.63-3.91Q172.79-3.91 175.49-5.49L175.49-5.49L175.49-5.49Q178.19-7.07 179.77-9.81L179.77-9.81L179.77-9.81Q181.35-12.55 181.35-15.90L181.35-15.90L181.35-21.20L181.35-21.20Q171.58-20.46 167.59-18.04L167.59-18.04L167.59-18.04Q163.59-15.62 163.59-10.23L163.59-10.23L163.59-10.23Q163.59-3.91 169.63-3.91L169.63-3.91ZM201.25 0.28L201.25 0.28Q200.60 0.28 200.18-0.28L200.18-0.28L200.18-0.28Q199.76-0.84 199.76-1.58L199.76-1.58L199.76-1.58Q199.86-2.79 200.28-3.02L200.28-3.02L200.28-3.02Q200.69-3.25 201.90-3.25L201.90-3.25L201.90-3.25Q204.32-3.25 205.34-4.09L205.34-4.09L205.34-4.09Q206.37-4.93 206.55-6.04L206.55-6.04L206.55-6.04Q206.74-7.16 206.74-9.58L206.74-9.58L206.74-54.96L206.74-54.96Q206.74-57.38 206.60-58.50L206.60-58.50L206.60-58.50Q206.46-59.61 205.44-60.45L205.44-60.45L205.44-60.45Q204.41-61.29 202.00-61.29L202.00-61.29L202.00-61.29Q200.88-61.29 200.32-61.61L200.32-61.61L200.32-61.61Q199.76-61.94 199.76-63.15L199.76-63.15L199.76-63.15Q199.76-63.70 200.14-64.22L200.14-64.22L200.14-64.22Q200.51-64.73 201.25-64.82L201.25-64.82L201.25-64.82Q207.11-65.66 211.30-67.24L211.30-67.24L211.30-67.24Q212.60-67.70 213.43-67.80L213.43-67.80L213.71-67.80L213.71-67.80Q215.20-67.80 215.20-66.03L215.20-66.03L215.20-9.58L215.20-9.58Q215.20-7.16 215.39-6.04L215.39-6.04L215.39-6.04Q215.57-4.93 216.60-4.09L216.60-4.09L216.60-4.09Q217.62-3.25 220.04-3.25L220.04-3.25L220.60-3.25L220.60-3.25Q221.34-3.25 221.71-2.98L221.71-2.98L221.71-2.98Q222.08-2.70 222.18-1.58L222.18-1.58L222.18-1.58Q222.18-0.84 221.80-0.28L221.80-0.28L221.80-0.28Q221.43 0.28 220.69 0.28L220.69 0.28L220.69 0.28Q215.29 0 210.92 0L210.92 0L210.92 0Q206.74 0 201.25 0.28L201.25 0.28ZM249.80 1.12L249.80 1.12Q242.82 1.12 237.94-1.86L237.94-1.86L237.94-1.86Q233.06-4.84 230.55-9.95L230.55-9.95L230.55-9.95Q228.04-15.07 228.04-21.30L228.04-21.30L228.04-21.30Q228.04-26.78 230.59-31.85L230.59-31.85L230.59-31.85Q233.15-36.92 237.89-40.08L237.89-40.08L237.89-40.08Q242.64-43.24 248.77-43.24L248.77-43.24L248.77-43.24Q257.05-43.24 261.52-39.01L261.52-39.01L261.52-39.01Q265.98-34.78 266.63-27.62L266.63-27.62L266.63-27.62Q266.63-24.55 264.96-23.44L264.96-23.44L264.96-23.44Q263.28-22.32 260.12-22.32L260.12-22.32L237.52-22.32L237.52-22.32Q237.52-13.67 241.10-8.60L241.10-8.60L241.10-8.60Q244.68-3.53 252.22-3.53L252.22-3.53L252.22-3.53Q256.21-3.53 259.00-5.25L259.00-5.25L259.00-5.25Q261.79-6.97 264.31-11.07L264.31-11.07L264.31-11.07Q264.77-11.53 265.24-11.53L265.24-11.53L265.24-11.53Q265.89-11.53 266.35-11.16L266.35-11.16L266.35-11.16Q267.28-10.60 267.28-9.49L267.28-9.49L267.28-9.49Q267.28-8.93 267.10-8.65L267.10-8.65L267.10-8.65Q264.21-4.00 259.80-1.44L259.80-1.44L259.80-1.44Q255.38 1.12 249.80 1.12L249.80 1.12ZM237.52-25.85L252.68-25.85L252.68-25.85Q257.42-25.85 257.70-29.76L257.70-29.76L257.70-29.76Q257.70-34.04 255.38-37.01L255.38-37.01L255.38-37.01Q253.05-39.99 248.77-39.99L248.77-39.99L248.77-39.99Q244.03-39.99 240.96-36.22L240.96-36.22L240.96-36.22Q237.89-32.46 237.52-25.85L237.52-25.85ZM291.18 1.12L291.18 1.12Q283.74 1.12 279.09-1.49L279.09-1.49L279.09-1.49Q274.44-4.09 274.44-8.83L274.44-8.83L274.44-8.83Q274.44-11.53 276.07-13.21L276.07-13.21L276.07-13.21Q277.70-14.88 280.30-14.88L280.30-14.88L280.30-14.88Q281.79-14.88 282.95-14.04L282.95-14.04L282.95-14.04Q284.11-13.21 284.11-12.74L284.11-12.74L284.11-12.74Q284.11-12.65 283.05-11.53L283.05-11.53L283.05-11.53Q281.98-10.42 281.98-8.37L281.98-8.37L281.98-8.37Q281.98-5.58 284.53-3.95L284.53-3.95L284.53-3.95Q287.09-2.33 291.93-2.33L291.93-2.33L291.93-2.33Q296.30-2.33 298.76-4.23L298.76-4.23L298.76-4.23Q301.23-6.14 301.23-9.58L301.23-9.58L301.23-9.58Q301.23-11.90 299.83-13.39L299.83-13.39L299.83-13.39Q298.44-14.88 296.34-15.72L296.34-15.72L296.34-15.72Q294.25-16.55 290.53-17.67L290.53-17.67L290.53-17.67Q285.97-18.97 283.09-20.27L283.09-20.27L283.09-20.27Q280.21-21.58 278.16-24.18L278.16-24.18L278.16-24.18Q276.12-26.78 276.12-30.97L276.12-30.97L276.12-30.97Q276.12-34.88 278.53-37.66L278.53-37.66L278.53-37.66Q280.95-40.45 284.81-41.85L284.81-41.85L284.81-41.85Q288.67-43.24 292.95-43.24L292.95-43.24L292.95-43.24Q298.44-43.24 302.48-40.92L302.48-40.92L302.48-40.92Q306.53-38.59 306.53-34.41L306.53-34.41L306.53-34.41Q306.53-31.90 304.99-30.13L304.99-30.13L304.99-30.13Q303.46-28.36 300.95-28.36L300.95-28.36L300.95-28.36Q299.46-28.36 298.30-29.20L298.30-29.20L298.30-29.20Q297.13-30.04 297.13-30.50L297.13-30.50L297.13-30.50Q297.13-30.60 297.88-31.25L297.88-31.25L297.88-31.25Q298.62-31.90 299.23-32.78L299.23-32.78L299.23-32.78Q299.83-33.67 299.83-34.88L299.83-34.88L299.83-34.88Q299.65-37.39 297.32-38.78L297.32-38.78L297.32-38.78Q295.00-40.18 291.83-40.18L291.83-40.18L291.83-40.18Q288.30-40.18 285.65-38.55L285.65-38.55L285.65-38.55Q283.00-36.92 283.00-34.04L283.00-34.04L283.00-34.04Q283.00-31.43 284.11-29.90L284.11-29.90L284.11-29.90Q285.23-28.36 287.46-27.43L287.46-27.43L287.46-27.43Q289.69-26.50 294.53-24.92L294.53-24.92L294.53-24.92Q299.46-23.34 302.25-21.99L302.25-21.99L302.25-21.99Q305.04-20.65 306.67-18.37L306.67-18.37L306.67-18.37Q308.29-16.09 308.29-12.37L308.29-12.37L308.29-12.37Q308.29-8.56 306.06-5.44L306.06-5.44L306.06-5.44Q303.83-2.33 299.92-0.60L299.92-0.60L299.92-0.60Q296.02 1.12 291.18 1.12L291.18 1.12Z" fill="url(#editing-outline-gradient)"></path></g></g><style>
</style></svg>