<svg width="184" height="20" viewBox="0 0 184 20" fill="none" xmlns="http://www.w3.org/2000/svg">
<path d="M70.0844 19.6666H65.0541L68.198 0.345246H73.2289L70.0844 19.6666ZM60.8222 0.345246L56.0265 13.6346L55.459 10.7729L55.4595 10.774L53.7669 2.08492C53.7669 2.08492 53.5622 0.345246 51.3807 0.345246H43.4524L43.3594 0.672403C43.3594 0.672403 45.7839 1.17683 48.6213 2.88084L52.9916 19.6672H58.2329L66.2361 0.345246H60.8222ZM100.389 19.6666H105.008L100.98 0.344729H96.9366C95.0693 0.344729 94.6145 1.78463 94.6145 1.78463L87.1121 19.6666H92.3559L93.4046 16.7966H99.7994L100.389 19.6666ZM94.8533 12.832L97.4964 5.60147L98.9833 12.832H94.8533ZM87.5054 4.9916L88.2233 0.842441C88.2233 0.842441 86.0082 0 83.6989 0C81.2026 0 75.2745 1.09104 75.2745 6.39636C75.2745 11.388 82.2322 11.45 82.2322 14.0719C82.2322 16.6938 75.9914 16.224 73.9318 14.5706L73.1839 18.909C73.1839 18.909 75.4301 20 78.8619 20C82.2947 20 87.4734 18.2226 87.4734 13.385C87.4734 8.36137 80.4532 7.89364 80.4532 5.70949C80.4537 3.52482 85.3528 3.80546 87.5054 4.9916Z" fill="#2566AF"/>
<path d="M55.4595 10.7735L53.7669 2.08446C53.7669 2.08446 53.5622 0.344788 51.3807 0.344788H43.4524L43.3594 0.671944C43.3594 0.671944 47.17 1.46167 50.8251 4.42055C54.3199 7.24868 55.4595 10.7735 55.4595 10.7735Z" fill="#E6A540"/>
<path d="M20.5547 2.13794H11.8047V17.8619H20.5547V2.13794Z" fill="#FF5F00"/>
<path d="M12.3603 10C12.3589 8.48567 12.7021 6.99086 13.3638 5.62876C14.0255 4.26665 14.9885 3.07294 16.1797 2.138C14.7045 0.978459 12.9328 0.257355 11.0672 0.0571128C9.20152 -0.14313 7.31716 0.185562 5.62948 1.00563C3.94181 1.8257 2.5189 3.10406 1.5234 4.69459C0.52791 6.28511 0 8.12363 0 10C0 11.8764 0.52791 13.7149 1.5234 15.3054C2.5189 16.8959 3.94181 18.1743 5.62948 18.9944C7.31716 19.8144 9.20152 20.1431 11.0672 19.9429C12.9328 19.7426 14.7045 19.0215 16.1797 17.862C14.9885 16.927 14.0255 15.7333 13.3638 14.3712C12.7021 13.0091 12.3589 11.5143 12.3603 10Z" fill="#EB001B"/>
<path d="M32.3589 10C32.359 11.8763 31.8311 13.7149 30.8357 15.3054C29.8402 16.8959 28.4174 18.1743 26.7297 18.9943C25.0421 19.8144 23.1578 20.1431 21.2921 19.9429C19.4265 19.7426 17.6549 19.0215 16.1797 17.862C17.3699 16.9261 18.3321 15.7322 18.9937 14.3703C19.6553 13.0084 19.9991 11.5141 19.9991 10C19.9991 8.48591 19.6553 6.99157 18.9937 5.62968C18.3321 4.26779 17.3699 3.07389 16.1797 2.138C17.6549 0.978454 19.4265 0.25735 21.2921 0.0571102C23.1578 -0.14313 25.0421 0.185576 26.7297 1.00566C28.4174 1.82574 29.8402 3.1041 30.8357 4.69462C31.8311 6.28515 32.359 8.12365 32.3589 10Z" fill="#F79E1B"/>
<path d="M31.4039 16.1965V15.8746H31.5337V15.809H31.2031V15.8746H31.333V16.1965H31.4039ZM32.0457 16.1965V15.8083H31.9444L31.8278 16.0753L31.7112 15.8083H31.6098V16.1965H31.6814V15.9037L31.7907 16.1561H31.8649L31.9742 15.9031V16.1965H32.0457Z" fill="#F79E1B"/>
<path fill-rule="evenodd" clip-rule="evenodd" d="M142.485 0.522C144.766 -0.380452 147.631 -0.166822 149.456 1.58823C148.888 2.4782 148.317 3.36636 147.745 4.25635C146.736 3.38418 145.339 2.94451 144.027 3.29158C142.428 3.67077 141.385 5.4311 141.658 7.01881C141.871 8.10104 142.977 8.78632 144.032 8.78632C145.251 8.88778 146.392 8.30931 147.327 7.57772C147.765 8.42853 148.156 9.30071 148.535 10.1782C147.38 11.0682 146.04 11.7891 144.563 11.9101C142.813 12.0756 140.875 11.846 139.499 10.6517C138.466 9.75819 137.945 8.36981 137.987 7.02057C137.998 4.21543 139.887 1.54725 142.485 0.522ZM116.028 2.20943C115.897 1.3479 116.411 0.384959 117.315 0.240765C118.178 0.166025 119.047 0.22653 119.91 0.215832C119.586 2.48351 119.221 4.7458 118.899 7.01347C118.736 8.30038 118.91 9.75284 119.848 10.7265C120.311 11.2391 120.977 11.4651 121.583 11.7553C120.229 11.7606 118.874 11.7695 117.522 11.7535C116.728 11.741 116.037 11.0202 116.037 10.2316C116.021 7.55812 116.043 4.88289 116.028 2.20943ZM128.589 3.14566C128.721 2.16493 128.869 1.1877 129.024 0.212307C132.119 0.212307 135.214 0.201609 138.31 0.217646C138.203 0.949206 138.11 1.68253 137.971 2.40876C137.945 2.62946 137.761 2.77543 137.63 2.93915C135.771 4.90247 133.926 6.87996 132.066 8.84328C133.406 8.84328 134.748 8.8415 136.09 8.84328C136.371 9.89523 136.879 10.8635 137.516 11.7428C134.031 11.7998 130.542 11.7784 127.059 11.7535C127.164 11.1109 127.237 10.4559 127.461 9.84001C127.698 9.19571 128.166 8.67774 128.63 8.18828C130.25 6.51688 131.84 4.81705 133.465 3.15278C131.84 3.14208 130.214 3.15632 128.589 3.14566ZM153.808 0.214067C155.023 0.206947 156.239 0.208731 157.457 0.21229C158.197 4.05698 158.904 7.90879 159.614 11.7588C158.503 11.7552 157.387 11.8318 156.282 11.7268C156.175 11.2444 156.136 10.7496 156.07 10.2601C154.794 10.2619 153.518 10.2565 152.243 10.2637C152.03 10.7567 151.818 11.2515 151.602 11.7446C150.485 11.7428 149.367 11.7623 148.251 11.7303C150.075 7.87851 151.957 4.05342 153.808 0.214067ZM153.299 7.67917C154.114 7.68275 154.927 7.68275 155.742 7.67739C155.536 6.20183 155.374 4.72092 155.155 3.24712C154.536 4.72268 153.925 6.20538 153.299 7.67917ZM162.216 0.285264C164.044 0.269262 165.872 0.278144 167.7 0.276382C168.814 0.285264 170.03 0.552277 170.81 1.40663C171.564 2.24675 171.6 3.49628 171.276 4.52689C170.943 5.70169 170.078 6.62188 169.117 7.33032C169.736 8.79878 170.343 10.2708 170.934 11.7517C169.97 11.7731 169.001 11.7998 168.038 11.7535C167.366 11.6876 166.915 11.0771 166.718 10.4773C166.436 9.72079 166.164 8.96074 165.888 8.2025C165.432 8.19892 164.979 8.19892 164.527 8.19892C164.338 9.38795 164.158 10.5769 163.959 11.7642C162.802 11.7784 161.647 11.7784 160.491 11.7624C161.054 7.93549 161.641 4.11037 162.216 0.285264ZM164.945 5.44356C165.769 5.39376 166.787 5.65359 167.424 4.97367C167.916 4.49666 167.935 3.53549 167.259 3.21686C166.625 3.00683 165.943 3.10828 165.29 3.08513C165.166 3.8701 165.059 4.65686 164.945 5.44356ZM171.99 11.7606C172.542 7.9088 173.117 4.06052 173.7 0.214067C175.258 0.208727 176.814 0.208726 178.371 0.210541C179.612 0.217643 180.906 0.541581 181.854 1.37994C182.867 2.23965 183.412 3.56217 183.462 4.87577C183.565 6.87108 182.673 8.87708 181.151 10.1676C179.902 11.2426 178.243 11.7695 176.607 11.7713C175.067 11.7695 173.528 11.7838 171.99 11.7606ZM176.769 3.07448C176.479 5.00929 176.173 6.94228 175.875 8.87708C176.719 8.87886 177.647 8.97144 178.378 8.45523C179.818 7.47094 180.357 5.21752 179.314 3.77217C178.725 2.97301 177.647 3.06202 176.769 3.07448ZM147.734 16.1785C147.87 16.1749 148.14 16.166 148.276 16.1607C148.438 16.4561 148.596 16.7516 148.74 17.0577C148.238 16.9901 148.005 16.5398 147.734 16.1785ZM159.358 16.716C159.064 16.5932 159.372 16.2247 159.455 16.0396C159.584 16.1126 159.842 16.2603 159.97 16.3333C159.795 16.5148 159.667 16.9082 159.358 16.716ZM162.994 16.2052C163.341 15.8972 163.713 16.4419 163.359 16.6946C163.033 16.9937 162.588 16.4045 162.994 16.2052ZM168.368 16.6697C168.054 16.3885 168.546 16.2051 168.713 16.0183C168.791 16.1411 168.952 16.3849 169.03 16.5077C168.822 16.6003 168.59 16.8976 168.368 16.6697ZM116.226 19.9075C116.411 18.681 116.573 17.4529 116.747 16.2283C117.447 16.2888 118.283 16.0343 118.874 16.5202C119.316 16.9599 119.003 17.6309 118.622 17.9975C119.14 18.4301 119.124 19.2791 118.549 19.6565C117.849 20.0677 116.995 19.8558 116.226 19.9075ZM117.223 16.6697C117.162 17.0577 117.103 17.4476 117.052 17.8391C117.413 17.8231 117.782 17.8498 118.138 17.7715C118.552 17.6558 118.743 16.9865 118.319 16.7676C117.965 16.6537 117.586 16.6929 117.223 16.6697ZM116.989 18.2824C116.932 18.6722 116.881 19.0655 116.831 19.4589C117.402 19.4375 118.401 19.5835 118.453 18.7665C118.374 18.067 117.472 18.3357 116.989 18.2824ZM125.526 16.2835C125.645 16.2532 125.886 16.1962 126.007 16.166C125.916 17.0186 125.795 17.8694 125.633 18.7113C126.243 18.1862 126.599 17.1717 127.532 17.2233C127.206 17.6255 126.868 18.0189 126.532 18.4105C126.784 18.9231 127.035 19.4375 127.263 19.9608C126.521 20.0587 126.439 19.2311 126.138 18.7612C125.658 19.0993 125.631 19.8807 125.005 19.9858C125.149 18.7487 125.302 17.5081 125.526 16.2835ZM128.221 16.2852C128.342 16.2568 128.584 16.1998 128.705 16.1713C128.545 17.3995 128.408 18.6348 128.176 19.8523C128.055 19.8807 127.812 19.9377 127.69 19.9662C127.858 18.738 127.988 17.5027 128.221 16.2852ZM149.125 19.9021C149.335 18.6989 149.424 17.476 149.671 16.2817C149.794 16.2532 150.04 16.1945 150.162 16.166C149.993 17.4191 149.817 18.6704 149.635 19.9199C149.463 19.9128 149.294 19.9075 149.125 19.9021ZM142.615 17.1841C142.77 16.8851 142.888 16.5415 143.235 16.4098C143.221 16.6929 143.201 16.9776 143.178 17.2642C143.491 17.2713 143.804 17.2784 144.119 17.2963C144.002 17.8 143.477 17.6878 143.092 17.7484C143.019 18.3055 142.939 18.8626 142.909 19.4251C143.247 19.4358 143.587 19.4446 143.929 19.4517C143.717 20.0783 142.592 20.146 142.386 19.4891C142.38 18.9214 142.509 18.366 142.596 17.8106C142.468 17.7395 142.211 17.6006 142.083 17.5294C142.258 17.4102 142.434 17.2945 142.615 17.1841ZM157.202 17.1877C157.355 16.8904 157.457 16.5291 157.827 16.4205C157.809 16.6982 157.786 16.9759 157.761 17.2535C158.074 17.3283 158.868 17.0844 158.541 17.6451C158.256 17.7003 157.966 17.7163 157.679 17.7484C157.649 18.3001 157.396 18.8769 157.581 19.4197C157.889 19.4465 158.199 19.4607 158.51 19.4607C158.29 20.0765 157.168 20.1424 156.974 19.4891C156.96 18.9143 157.102 18.3518 157.174 17.7875C157.044 17.7234 156.784 17.5988 156.654 17.5348C156.832 17.4137 157.015 17.298 157.202 17.1877ZM119.982 17.5098C120.475 17.015 121.236 17.2215 121.815 17.4262C121.68 18.2343 121.607 19.0513 121.478 19.8594C121.267 19.9662 121.09 19.9056 120.953 19.676C120.546 19.9591 119.832 20.162 119.567 19.596C119.36 18.9036 119.483 18.0527 119.982 17.5098ZM120.318 17.8587C119.933 18.3535 119.807 19.1474 120.293 19.6226C120.542 19.4571 120.854 19.3521 121.028 19.0958C121.178 18.6348 121.192 18.1453 121.227 17.6665C120.92 17.6914 120.535 17.5721 120.318 17.8587ZM129.748 17.3105C130.25 17.0827 130.809 17.2624 131.304 17.4191C131.185 18.2467 131.067 19.078 130.978 19.911C130.871 19.9128 130.654 19.9146 130.546 19.9163C130.558 19.8327 130.581 19.6654 130.594 19.5817C130.223 19.7935 129.789 20.1103 129.346 19.8985C128.942 19.6832 128.929 19.1652 128.968 18.7701C129.024 18.2147 129.212 17.5775 129.748 17.3105ZM129.864 17.8C129.52 18.1293 129.462 18.6508 129.481 19.1029C129.486 19.3165 129.713 19.6707 129.958 19.4998C130.748 19.3183 130.658 18.3553 130.729 17.7323C130.444 17.6683 130.099 17.5561 129.864 17.8ZM132.393 17.5668C132.751 17.3354 133.157 17.2055 133.577 17.1432C133.57 17.2589 133.555 17.4885 133.548 17.6042C133.141 17.7056 132.623 17.7608 132.432 18.2022C132.274 18.738 132.281 19.3111 132.133 19.8505C132.01 19.8807 131.765 19.9395 131.644 19.9697C131.761 19.1243 131.836 18.2699 132.012 17.4351C132.087 17.3639 132.238 17.2197 132.315 17.1467C132.334 17.2517 132.374 17.4618 132.393 17.5668ZM134.008 17.6558C134.46 17.0097 135.341 17.1841 135.971 17.4244C135.844 18.2236 135.773 19.0335 135.633 19.8309C135.533 19.8736 135.334 19.9573 135.234 20C135.241 19.8914 135.252 19.6743 135.257 19.5657C134.869 19.8256 134.349 20.1548 133.899 19.8327C133.397 19.2186 133.628 18.277 134.008 17.6558ZM134.629 17.7377C134.113 18.0972 133.812 19.3592 134.59 19.5479C135.396 19.3147 135.373 18.3571 135.367 17.6807C135.106 17.622 134.86 17.6398 134.629 17.7377ZM136.695 17.2019C136.854 17.2945 137.012 17.3853 137.172 17.4814C137.507 17.3034 137.875 17.2144 138.249 17.1521C138.233 17.3051 138.217 17.4582 138.201 17.6131C137.788 17.7021 137.263 17.7733 137.092 18.2272C136.941 18.7754 136.911 19.3485 136.818 19.9092C136.645 19.9074 136.475 19.9074 136.304 19.9074C136.442 19.0068 136.558 18.1026 136.695 17.2019ZM139.121 17.2731C139.426 17.1556 139.771 17.1539 140.086 17.2358C140.567 17.3888 140.734 17.962 140.672 18.4176C140.616 18.9819 140.428 19.644 139.865 19.8968C139.347 20.0908 138.559 20.0232 138.388 19.3948C138.199 18.6544 138.392 17.654 139.121 17.2731ZM139.265 17.7252C138.872 18.0563 138.799 18.6419 138.853 19.1261C138.897 19.4607 139.258 19.6387 139.566 19.5194C140.111 19.2702 140.188 18.5671 140.15 18.0403C140.102 17.6255 139.566 17.4547 139.265 17.7252ZM145.008 17.2927C145.374 17.1449 145.83 17.1218 146.188 17.3123C146.668 17.6255 146.647 18.2806 146.547 18.7807C146.456 19.2863 146.163 19.8416 145.615 19.9519C145.091 20.0979 144.383 19.8968 144.287 19.2898C144.183 18.5814 144.328 17.6771 145.008 17.2927ZM145.164 17.7484C144.774 18.1168 144.709 18.7344 144.815 19.2364C144.96 19.6512 145.561 19.6315 145.796 19.3094C146.076 18.9036 146.156 18.3589 146.036 17.8854C145.889 17.5401 145.421 17.5187 145.164 17.7484ZM151.218 17.2696C151.714 17.088 152.455 17.1361 152.667 17.7092C152.948 18.5636 152.592 19.9644 151.51 19.9839C150.974 20.0765 150.436 19.6903 150.404 19.1403C150.376 18.4603 150.531 17.5864 151.218 17.2696ZM151.371 17.7056C150.938 18.0652 150.828 18.7487 150.986 19.2684C151.186 19.7348 151.884 19.5693 152.051 19.1563C152.227 18.7309 152.371 18.1951 152.12 17.7732C151.939 17.5455 151.593 17.549 151.371 17.7056ZM164.372 17.6024C164.822 17.2286 165.536 17.0061 165.895 17.6238C166.246 17.3479 166.739 17.0346 167.175 17.3354C167.586 17.6968 167.394 18.3037 167.362 18.7754C167.239 19.2471 167.401 20.0445 166.68 19.9662C166.762 19.1919 166.969 18.4212 166.864 17.638C166.533 17.7252 166.104 17.7448 165.954 18.1115C165.749 18.6686 165.796 19.2827 165.632 19.8505C165.516 19.8807 165.281 19.9395 165.164 19.9697C165.217 19.2773 165.456 18.5796 165.374 17.8908C165.189 17.4012 164.594 17.8089 164.425 18.1222C164.265 18.6864 164.261 19.2791 164.135 19.8523C164.012 19.8807 163.766 19.9377 163.642 19.968C163.763 19.0993 163.829 18.2183 164.026 17.3639C164.11 17.3123 164.277 17.2072 164.361 17.1539C164.365 17.266 164.37 17.4903 164.372 17.6024ZM122.543 17.3621C122.628 17.3123 122.803 17.2144 122.888 17.1646C122.886 17.2749 122.879 17.4938 122.877 17.6042C123.241 17.3924 123.634 17.1004 124.081 17.2304C124.447 17.3016 124.581 17.7199 124.552 18.051C124.519 18.6561 124.442 19.2649 124.296 19.854C124.172 19.8825 123.922 19.9377 123.798 19.9662C123.858 19.2702 124.067 18.5832 124.013 17.8818C123.751 17.4191 123.136 17.7804 122.933 18.1222C122.772 18.6846 122.781 19.2809 122.639 19.8487C122.52 19.8789 122.278 19.9377 122.158 19.9662C122.271 19.0958 122.354 18.2183 122.543 17.3621ZM153.174 17.2144C153.304 17.2393 153.566 17.2927 153.696 17.3176C153.893 17.9779 153.964 18.6651 154.103 19.3396C154.413 18.6437 154.744 17.9584 155.07 17.2713C155.214 17.2713 155.5 17.2695 155.643 17.2678C155.176 18.1542 154.735 19.0531 154.281 19.9448C154.11 19.943 153.941 19.943 153.774 19.9448C153.576 19.0335 153.359 18.1275 153.174 17.2144ZM159.158 17.2767C159.29 17.2749 159.553 17.2713 159.687 17.2713C159.541 18.1239 159.475 18.9907 159.299 19.8398C159.139 19.8914 158.98 19.9377 158.818 19.9768C158.886 19.0709 159.057 18.1774 159.158 17.2767ZM160.299 17.2963C160.974 17.2339 161.655 17.2749 162.334 17.2909C161.817 18.0438 161.23 18.7451 160.66 19.4571C161.104 19.4607 161.549 19.4624 161.994 19.4713C161.947 19.5728 161.857 19.7793 161.81 19.8825C161.13 19.9395 160.445 19.9021 159.765 19.8896C160.294 19.1367 160.892 18.4372 161.467 17.7216C161.016 17.7234 160.566 17.7234 160.118 17.7199C160.162 17.613 160.253 17.4012 160.299 17.2963ZM162.812 17.3283C162.937 17.298 163.188 17.2375 163.313 17.2072C163.176 18.0884 163.103 18.9819 162.912 19.8523C162.791 19.8825 162.547 19.9413 162.426 19.9715C162.547 19.0887 162.622 18.1987 162.812 17.3283ZM168.225 17.2749C168.357 17.2731 168.622 17.2731 168.754 17.2731C168.62 18.1488 168.496 19.0246 168.377 19.9039C168.247 19.9039 167.987 19.9057 167.857 19.9057C167.987 19.03 168.118 18.1542 168.225 17.2749Z" fill="#00358D"/>
<path fill-rule="evenodd" clip-rule="evenodd" d="M120.518 7.15246C120.862 4.83677 121.166 2.5139 121.538 0.201743C123.498 0.194623 125.456 0.189283 127.416 0.207083C126.932 3.589 126.44 6.96911 125.935 10.3493C124.961 10.3581 123.987 10.3795 123.014 10.3457C122.211 10.3261 121.355 10.0271 120.883 9.34182C120.476 8.69744 120.403 7.89294 120.518 7.15246Z" fill="#FF4103"/>
</svg>
